<mxfile host="app.diagrams.net" modified="2023-12-11T06:36:52.630Z" agent="Mozilla/5.0 (Macintosh; Intel Mac OS X 10_15_7) AppleWebKit/605.1.15 (KHTML, like Gecko) Version/17.1.2 Safari/605.1.15" etag="ASs6zZhyLV_S4o5vRy0s" version="22.1.7" type="github">
  <diagram name="第 1 页" id="qshmEMhHI_gkHC6VlJmc">
    <mxGraphModel dx="1426" dy="615" grid="1" gridSize="10" guides="1" tooltips="1" connect="1" arrows="1" fold="1" page="0" pageScale="1" pageWidth="827" pageHeight="1169" math="0" shadow="0">
      <root>
        <mxCell id="0" />
        <mxCell id="1" parent="0" />
        <mxCell id="tjNwIw8HRPoKZrOF2A_r-1" value="" style="rounded=0;whiteSpace=wrap;html=1;dashed=1;" parent="1" vertex="1">
          <mxGeometry x="-20" y="10" width="940" height="550" as="geometry" />
        </mxCell>
        <mxCell id="NR3EHhOYIXpaoXTfDvOW-2" value="" style="rounded=0;whiteSpace=wrap;html=1;dashed=1;" parent="1" vertex="1">
          <mxGeometry y="120" width="240" height="400" as="geometry" />
        </mxCell>
        <mxCell id="NR3EHhOYIXpaoXTfDvOW-3" value="&lt;font style=&quot;font-size: 16px;&quot;&gt;训练数据样本平衡化&lt;/font&gt;" style="rounded=0;whiteSpace=wrap;html=1;" parent="1" vertex="1">
          <mxGeometry x="40" y="40" width="160" height="60" as="geometry" />
        </mxCell>
        <mxCell id="NR3EHhOYIXpaoXTfDvOW-6" value="" style="rounded=0;whiteSpace=wrap;html=1;dashed=1;" parent="1" vertex="1">
          <mxGeometry x="30" y="130" width="180" height="130" as="geometry" />
        </mxCell>
        <mxCell id="NR3EHhOYIXpaoXTfDvOW-7" value="" style="rounded=0;whiteSpace=wrap;html=1;" parent="1" vertex="1">
          <mxGeometry x="30" y="290" width="180" height="130" as="geometry" />
        </mxCell>
        <mxCell id="NR3EHhOYIXpaoXTfDvOW-8" value="&lt;font size=&quot;3&quot;&gt;训练样本平衡化&lt;/font&gt;" style="rounded=0;whiteSpace=wrap;html=1;" parent="1" vertex="1">
          <mxGeometry x="30" y="450" width="180" height="60" as="geometry" />
        </mxCell>
        <mxCell id="NR3EHhOYIXpaoXTfDvOW-9" value="&lt;font style=&quot;font-size: 16px;&quot;&gt;原始数据集&lt;/font&gt;" style="rounded=0;whiteSpace=wrap;html=1;strokeColor=#ffffff;" parent="1" vertex="1">
          <mxGeometry x="60" y="140" width="120" height="30" as="geometry" />
        </mxCell>
        <mxCell id="NR3EHhOYIXpaoXTfDvOW-10" value="&lt;font style=&quot;font-size: 16px;&quot;&gt;属性&lt;/font&gt;" style="rounded=0;whiteSpace=wrap;html=1;" parent="1" vertex="1">
          <mxGeometry x="50" y="170" width="140" height="30" as="geometry" />
        </mxCell>
        <mxCell id="NR3EHhOYIXpaoXTfDvOW-11" value="&lt;font style=&quot;font-size: 16px;&quot;&gt;标签&lt;/font&gt;" style="rounded=0;whiteSpace=wrap;html=1;" parent="1" vertex="1">
          <mxGeometry x="50" y="210" width="140" height="30" as="geometry" />
        </mxCell>
        <mxCell id="NR3EHhOYIXpaoXTfDvOW-13" value="" style="endArrow=classic;html=1;rounded=0;entryX=0.5;entryY=0;entryDx=0;entryDy=0;exitX=0.5;exitY=1;exitDx=0;exitDy=0;strokeWidth=3;" parent="1" source="NR3EHhOYIXpaoXTfDvOW-6" target="NR3EHhOYIXpaoXTfDvOW-7" edge="1">
          <mxGeometry width="50" height="50" relative="1" as="geometry">
            <mxPoint x="100" y="280" as="sourcePoint" />
            <mxPoint x="150" y="230" as="targetPoint" />
          </mxGeometry>
        </mxCell>
        <mxCell id="NR3EHhOYIXpaoXTfDvOW-14" value="&lt;font style=&quot;font-size: 16px;&quot;&gt;数据标准化&lt;/font&gt;" style="rounded=0;whiteSpace=wrap;html=1;strokeColor=#ffffff;" parent="1" vertex="1">
          <mxGeometry x="60" y="300" width="120" height="30" as="geometry" />
        </mxCell>
        <mxCell id="NR3EHhOYIXpaoXTfDvOW-15" value="&lt;font style=&quot;font-size: 16px;&quot;&gt;属性映射&lt;/font&gt;" style="rounded=0;whiteSpace=wrap;html=1;" parent="1" vertex="1">
          <mxGeometry x="50" y="330" width="140" height="30" as="geometry" />
        </mxCell>
        <mxCell id="NR3EHhOYIXpaoXTfDvOW-16" value="&lt;font style=&quot;font-size: 16px;&quot;&gt;数据归一化&lt;/font&gt;" style="rounded=0;whiteSpace=wrap;html=1;" parent="1" vertex="1">
          <mxGeometry x="50" y="370" width="140" height="30" as="geometry" />
        </mxCell>
        <mxCell id="NR3EHhOYIXpaoXTfDvOW-17" value="" style="endArrow=classic;html=1;rounded=0;strokeWidth=3;exitX=0.5;exitY=1;exitDx=0;exitDy=0;" parent="1" source="NR3EHhOYIXpaoXTfDvOW-7" target="NR3EHhOYIXpaoXTfDvOW-8" edge="1">
          <mxGeometry width="50" height="50" relative="1" as="geometry">
            <mxPoint x="130" y="270" as="sourcePoint" />
            <mxPoint x="130" y="300" as="targetPoint" />
          </mxGeometry>
        </mxCell>
        <mxCell id="NR3EHhOYIXpaoXTfDvOW-18" value="" style="rounded=0;whiteSpace=wrap;html=1;dashed=1;" parent="1" vertex="1">
          <mxGeometry x="320" y="120" width="240" height="400" as="geometry" />
        </mxCell>
        <mxCell id="NR3EHhOYIXpaoXTfDvOW-19" value="" style="endArrow=classic;html=1;rounded=0;strokeWidth=3;exitX=1;exitY=0.5;exitDx=0;exitDy=0;entryX=0;entryY=0.5;entryDx=0;entryDy=0;" parent="1" source="NR3EHhOYIXpaoXTfDvOW-8" target="NR3EHhOYIXpaoXTfDvOW-21" edge="1">
          <mxGeometry width="50" height="50" relative="1" as="geometry">
            <mxPoint x="130" y="430" as="sourcePoint" />
            <mxPoint x="320" y="450" as="targetPoint" />
            <Array as="points">
              <mxPoint x="280" y="480" />
              <mxPoint x="280" y="150" />
            </Array>
          </mxGeometry>
        </mxCell>
        <mxCell id="NR3EHhOYIXpaoXTfDvOW-20" value="&lt;font size=&quot;3&quot;&gt;特征选择&lt;/font&gt;" style="rounded=0;whiteSpace=wrap;html=1;" parent="1" vertex="1">
          <mxGeometry x="360" y="40" width="160" height="60" as="geometry" />
        </mxCell>
        <mxCell id="NR3EHhOYIXpaoXTfDvOW-21" value="&lt;font size=&quot;3&quot;&gt;处理后的数据&lt;/font&gt;" style="rounded=0;whiteSpace=wrap;html=1;" parent="1" vertex="1">
          <mxGeometry x="370" y="130" width="140" height="40" as="geometry" />
        </mxCell>
        <mxCell id="NR3EHhOYIXpaoXTfDvOW-22" value="" style="endArrow=classic;html=1;rounded=0;exitX=0.5;exitY=1;exitDx=0;exitDy=0;strokeWidth=3;" parent="1" source="NR3EHhOYIXpaoXTfDvOW-21" target="NR3EHhOYIXpaoXTfDvOW-23" edge="1">
          <mxGeometry width="50" height="50" relative="1" as="geometry">
            <mxPoint x="130" y="270" as="sourcePoint" />
            <mxPoint x="130" y="300" as="targetPoint" />
          </mxGeometry>
        </mxCell>
        <mxCell id="NR3EHhOYIXpaoXTfDvOW-23" value="" style="rounded=0;whiteSpace=wrap;html=1;dashed=1;" parent="1" vertex="1">
          <mxGeometry x="350" y="220" width="180" height="260" as="geometry" />
        </mxCell>
        <mxCell id="NR3EHhOYIXpaoXTfDvOW-25" value="&lt;font size=&quot;3&quot;&gt;敏感特征选择&lt;/font&gt;" style="rounded=0;whiteSpace=wrap;html=1;" parent="1" vertex="1">
          <mxGeometry x="370" y="370" width="140" height="80" as="geometry" />
        </mxCell>
        <mxCell id="NR3EHhOYIXpaoXTfDvOW-27" value="&lt;font size=&quot;3&quot;&gt;数据降维&lt;/font&gt;" style="rounded=0;whiteSpace=wrap;html=1;" parent="1" vertex="1">
          <mxGeometry x="370" y="250" width="140" height="80" as="geometry" />
        </mxCell>
        <mxCell id="NR3EHhOYIXpaoXTfDvOW-28" value="&lt;font size=&quot;3&quot;&gt;异常检测&lt;/font&gt;" style="rounded=0;whiteSpace=wrap;html=1;" parent="1" vertex="1">
          <mxGeometry x="680" y="40" width="160" height="60" as="geometry" />
        </mxCell>
        <mxCell id="NR3EHhOYIXpaoXTfDvOW-29" value="" style="rounded=0;whiteSpace=wrap;html=1;dashed=1;" parent="1" vertex="1">
          <mxGeometry x="640" y="120" width="240" height="400" as="geometry" />
        </mxCell>
        <mxCell id="NR3EHhOYIXpaoXTfDvOW-30" value="" style="endArrow=classic;html=1;rounded=0;strokeWidth=3;exitX=1;exitY=0.5;exitDx=0;exitDy=0;entryX=0;entryY=0.5;entryDx=0;entryDy=0;" parent="1" source="NR3EHhOYIXpaoXTfDvOW-23" target="NR3EHhOYIXpaoXTfDvOW-32" edge="1">
          <mxGeometry width="50" height="50" relative="1" as="geometry">
            <mxPoint x="250" y="489" as="sourcePoint" />
            <mxPoint x="330" y="330" as="targetPoint" />
            <Array as="points">
              <mxPoint x="600" y="350" />
              <mxPoint x="600" y="170" />
            </Array>
          </mxGeometry>
        </mxCell>
        <mxCell id="NR3EHhOYIXpaoXTfDvOW-32" value="&lt;font size=&quot;3&quot;&gt;提取深度特征&lt;/font&gt;" style="rounded=0;whiteSpace=wrap;html=1;" parent="1" vertex="1">
          <mxGeometry x="690" y="150" width="140" height="40" as="geometry" />
        </mxCell>
        <mxCell id="NR3EHhOYIXpaoXTfDvOW-36" value="&lt;font size=&quot;3&quot;&gt;神经网络&lt;/font&gt;" style="rounded=0;whiteSpace=wrap;html=1;" parent="1" vertex="1">
          <mxGeometry x="690" y="240" width="140" height="40" as="geometry" />
        </mxCell>
        <mxCell id="NR3EHhOYIXpaoXTfDvOW-37" value="&lt;font size=&quot;3&quot;&gt;分类器&lt;/font&gt;" style="rounded=0;whiteSpace=wrap;html=1;" parent="1" vertex="1">
          <mxGeometry x="690" y="335" width="140" height="40" as="geometry" />
        </mxCell>
        <mxCell id="NR3EHhOYIXpaoXTfDvOW-38" value="&lt;font size=&quot;3&quot;&gt;分类结果&lt;/font&gt;" style="rounded=0;whiteSpace=wrap;html=1;" parent="1" vertex="1">
          <mxGeometry x="690" y="430" width="140" height="40" as="geometry" />
        </mxCell>
        <mxCell id="NR3EHhOYIXpaoXTfDvOW-39" value="" style="endArrow=classic;html=1;rounded=0;exitX=0.5;exitY=1;exitDx=0;exitDy=0;strokeWidth=3;entryX=0.5;entryY=0;entryDx=0;entryDy=0;" parent="1" source="NR3EHhOYIXpaoXTfDvOW-32" target="NR3EHhOYIXpaoXTfDvOW-36" edge="1">
          <mxGeometry width="50" height="50" relative="1" as="geometry">
            <mxPoint x="450" y="180" as="sourcePoint" />
            <mxPoint x="450" y="230" as="targetPoint" />
          </mxGeometry>
        </mxCell>
        <mxCell id="NR3EHhOYIXpaoXTfDvOW-40" value="" style="endArrow=classic;html=1;rounded=0;exitX=0.5;exitY=1;exitDx=0;exitDy=0;strokeWidth=3;entryX=0.5;entryY=0;entryDx=0;entryDy=0;" parent="1" source="NR3EHhOYIXpaoXTfDvOW-36" target="NR3EHhOYIXpaoXTfDvOW-37" edge="1">
          <mxGeometry width="50" height="50" relative="1" as="geometry">
            <mxPoint x="770" y="200" as="sourcePoint" />
            <mxPoint x="770" y="250" as="targetPoint" />
          </mxGeometry>
        </mxCell>
        <mxCell id="NR3EHhOYIXpaoXTfDvOW-41" value="" style="endArrow=classic;html=1;rounded=0;exitX=0.5;exitY=1;exitDx=0;exitDy=0;strokeWidth=3;entryX=0.5;entryY=0;entryDx=0;entryDy=0;" parent="1" source="NR3EHhOYIXpaoXTfDvOW-37" target="NR3EHhOYIXpaoXTfDvOW-38" edge="1">
          <mxGeometry width="50" height="50" relative="1" as="geometry">
            <mxPoint x="770" y="290" as="sourcePoint" />
            <mxPoint x="770" y="345" as="targetPoint" />
          </mxGeometry>
        </mxCell>
      </root>
    </mxGraphModel>
  </diagram>
</mxfile>
